<svg width="24" height="24" viewBox="0 0 24 24" fill="none" xmlns="http://www.w3.org/2000/svg">
<mask id="mask0_7_133" style="mask-type:alpha" maskUnits="userSpaceOnUse" x="0" y="0" width="24" height="24">
<rect width="24" height="24" fill="#D9D9D9"/>
</mask>
<g mask="url(#mask0_7_133)">
<path d="M19.9783 21.4804C17.8384 21.4804 15.7236 21.0145 13.6337 20.0826C11.5439 19.1507 9.63732 17.8279 7.91414 16.1141C6.19094 14.3909 4.8634 12.482 3.93152 10.3875C2.99963 8.29291 2.53369 6.17571 2.53369 4.03586C2.53369 3.60396 2.67608 3.24326 2.96087 2.95376C3.24565 2.66427 3.60399 2.51953 4.03589 2.51953H8.07177C8.52177 2.51953 8.89496 2.63873 9.19134 2.87713C9.48773 3.11555 9.68085 3.44201 9.77072 3.85651L10.4066 7.05976C10.4776 7.46774 10.4716 7.81521 10.3886 8.10216C10.3057 8.38912 10.141 8.64167 9.89462 8.85978L7.38482 11.1967C7.68047 11.7098 8.0292 12.2161 8.43102 12.7157C8.83282 13.2154 9.28987 13.713 9.80219 14.2087C10.2718 14.6782 10.7428 15.1009 11.2152 15.4766C11.6877 15.8523 12.1746 16.1858 12.6761 16.4771L15.125 14.0706C15.3786 13.8264 15.6734 13.6574 16.0093 13.5635C16.3451 13.4697 16.7004 13.4583 17.075 13.5293L20.1435 14.1869C20.5747 14.3101 20.9053 14.5086 21.1354 14.7826C21.3654 15.0565 21.4805 15.4007 21.4805 15.8152V19.9641C21.4805 20.396 21.3357 20.7567 21.0462 21.0462C20.7567 21.3357 20.4008 21.4804 19.9783 21.4804Z" fill="#1C1B1F"/>
</g>
</svg>
