<svg width="88" height="32" viewBox="0 0 88 32" fill="none" xmlns="http://www.w3.org/2000/svg">
<g filter="url(#filter0_b_312_1456)">
<path d="M11.5232 6.44604V21.0843H18.4327V25.5633H6.52539V6.44604H11.5232Z" fill="white" fill-opacity="0.3"/>
<path d="M28.4136 25.8091C26.2652 25.8091 24.4264 25.2265 22.8969 24.0611C21.3857 22.8959 20.6301 21.2938 20.6301 19.2546V6.44604H25.628V19.1454C25.628 19.8918 25.901 20.4562 26.4473 20.8386C26.9936 21.221 27.658 21.4122 28.4409 21.4122C29.1874 21.4122 29.8337 21.221 30.38 20.8386C30.9261 20.4562 31.1993 19.8918 31.1993 19.1454V6.44604H36.1425V19.2546C36.1425 21.2938 35.3869 22.8959 33.8757 24.0611C32.3645 25.2265 30.5438 25.8091 28.4136 25.8091Z" fill="white" fill-opacity="0.3"/>
<path d="M49.444 14.6665L57.0091 6.39148H58.7843V25.5634H53.7864V16.742L49.7172 21.0026H49.1436L45.0744 16.742V25.5634H40.0767V6.39148H41.8518L49.444 14.6665Z" fill="white" fill-opacity="0.3"/>
<path d="M81.4781 16.0047C81.4781 18.9178 80.5586 21.303 78.7198 23.1599C76.899 24.999 74.5411 25.9183 71.6463 25.9183C70.3536 25.9183 69.1247 25.709 67.9594 25.2902C66.8123 24.8715 65.7746 24.2615 64.846 23.4604C63.9358 22.6594 63.2074 21.6215 62.6611 20.347C62.1331 19.0543 61.8691 17.607 61.8691 16.0047C61.8691 13.8927 62.3518 12.072 63.3167 10.5426C64.2815 8.99503 65.4923 7.8662 66.949 7.15615C68.4238 6.42787 70.0167 6.06372 71.7282 6.06372C72.9663 6.06372 74.1589 6.2822 75.3059 6.71917C76.4711 7.13793 77.509 7.74787 78.4193 8.54896C79.3478 9.35007 80.0851 10.397 80.6314 11.6897C81.1958 12.9641 81.4781 14.4025 81.4781 16.0047ZM66.867 16.0047C66.867 17.6251 67.3403 18.8995 68.2871 19.8282C69.2339 20.7386 70.3627 21.1936 71.6736 21.1936C72.9663 21.1936 74.0861 20.7386 75.0327 19.8282C75.9978 18.8995 76.4802 17.6251 76.4802 16.0047C76.4802 14.3843 76.0069 13.1189 75.0602 12.2086C74.1134 11.28 73.0027 10.8157 71.7282 10.8157C70.381 10.8157 69.2339 11.2709 68.2871 12.1812C67.3403 13.0734 66.867 14.3479 66.867 16.0047Z" fill="white" fill-opacity="0.3"/>
</g>
<defs>
<filter id="filter0_b_312_1456" x="-16.2562" y="-16.2562" width="120.512" height="64.5123" filterUnits="userSpaceOnUse" color-interpolation-filters="sRGB">
<feFlood flood-opacity="0" result="BackgroundImageFix"/>
<feGaussianBlur in="BackgroundImageFix" stdDeviation="8.12808"/>
<feComposite in2="SourceAlpha" operator="in" result="effect1_backgroundBlur_312_1456"/>
<feBlend mode="normal" in="SourceGraphic" in2="effect1_backgroundBlur_312_1456" result="shape"/>
</filter>
</defs>
</svg>
