<svg width="24" height="24" viewBox="0 0 24 24" fill="none" xmlns="http://www.w3.org/2000/svg">
<mask id="mask0_314_2063" style="mask-type:alpha" maskUnits="userSpaceOnUse" x="0" y="0" width="24" height="24">
<rect width="24" height="24" fill="#D9D9D9"/>
</mask>
<g mask="url(#mask0_314_2063)">
<path d="M12 11.7598C10.7587 11.7598 9.70159 11.3234 8.82876 10.4505C7.95594 9.57771 7.51953 8.52063 7.51953 7.27931C7.51953 6.03801 7.95594 4.98331 8.82876 4.11519C9.70159 3.24706 10.7587 2.81299 12 2.81299C13.2413 2.81299 14.2984 3.24706 15.1712 4.11519C16.044 4.98331 16.4804 6.03801 16.4804 7.27931C16.4804 8.52063 16.044 9.57771 15.1712 10.4505C14.2984 11.3234 13.2413 11.7598 12 11.7598ZM3.51953 20.7207V17.412C3.51953 16.7577 3.68983 16.1563 4.03043 15.6079C4.37105 15.0594 4.82357 14.6408 5.38801 14.3522C6.44961 13.8261 7.53239 13.4292 8.63636 13.1614C9.74031 12.8937 10.8615 12.7598 12 12.7598C13.1565 12.7598 14.2869 12.8913 15.3913 13.1543C16.4956 13.4174 17.5692 13.812 18.612 14.338C19.1764 14.6253 19.6289 15.0419 19.9695 15.5878C20.3101 16.1336 20.4804 16.7414 20.4804 17.4112V20.7207H3.51953Z" fill="#6B6B6B"/>
</g>
</svg>
