<svg width="20" height="20" viewBox="0 0 20 20" fill="none" xmlns="http://www.w3.org/2000/svg">
<path d="M17.9783 19.4804C15.8384 19.4804 13.7236 19.0145 11.6337 18.0826C9.54385 17.1507 7.63732 15.8279 5.91414 14.1141C4.19094 12.3909 2.8634 10.4821 1.93152 8.3875C0.999633 6.29293 0.533691 4.17572 0.533691 2.03587C0.533691 1.60397 0.676083 1.24327 0.960866 0.953772C1.24565 0.664289 1.60399 0.519547 2.03589 0.519547H6.07177C6.52177 0.519547 6.89496 0.638747 7.19134 0.877147C7.48773 1.11556 7.68085 1.44202 7.77072 1.85652L8.40657 5.05977C8.47758 5.46776 8.47161 5.81522 8.38864 6.10217C8.30567 6.38914 8.141 6.64168 7.89462 6.8598L5.38482 9.19675C5.68047 9.70978 6.0292 10.2161 6.43102 10.7157C6.83282 11.2154 7.28987 11.713 7.80219 12.2087C8.27176 12.6782 8.74278 13.1009 9.21524 13.4766C9.68769 13.8523 10.1746 14.1858 10.6761 14.4771L13.125 12.0706C13.3786 11.8264 13.6734 11.6574 14.0093 11.5635C14.3451 11.4697 14.7004 11.4583 15.075 11.5293L18.1435 12.1869C18.5747 12.3101 18.9053 12.5087 19.1354 12.7826C19.3654 13.0565 19.4805 13.4007 19.4805 13.8152V17.9641C19.4805 18.396 19.3357 18.7567 19.0462 19.0462C18.7567 19.3357 18.4008 19.4804 17.9783 19.4804Z" fill="white"/>
</svg>
