<svg width="36" height="28" viewBox="0 0 36 28" fill="none" xmlns="http://www.w3.org/2000/svg">
<path d="M18.9621 13.5223C19.8143 12.6092 20.4553 11.5801 20.8852 10.435C21.3151 9.28992 21.53 8.1179 21.53 6.91897C21.53 5.70592 21.301 4.51624 20.8428 3.34995C20.3846 2.18365 19.7436 1.17223 18.9197 0.315709C20.6458 0.628759 22.0124 1.42197 23.0195 2.69535C24.0265 3.96872 24.53 5.3766 24.53 6.91897C24.53 8.5179 24.0194 9.94698 22.9982 11.2062C21.977 12.4655 20.6316 13.2375 18.9621 13.5223ZM27.53 27.0811V21.9451C27.53 20.8473 27.3371 19.8568 26.9512 18.9736C26.5654 18.0905 26.005 17.294 25.2702 16.5843C26.8137 16.9636 28.1328 17.5943 29.2273 18.4764C30.3219 19.3584 30.8692 20.5147 30.8692 21.9451V27.0811H27.53ZM30.8056 14.9701V11.9065H27.742V8.90651H30.8056V5.84291H33.8056V8.90651H36.8692V11.9065H33.8056V14.9701H30.8056ZM11.8305 13.6397C9.96856 13.6397 8.38295 12.9851 7.0737 11.6758C5.76448 10.3666 5.10986 8.78095 5.10986 6.91897C5.10986 5.05702 5.76448 3.47496 7.0737 2.17278C8.38295 0.870583 9.96856 0.219482 11.8305 0.219482C13.6925 0.219482 15.2746 0.870583 16.5768 2.17278C17.8789 3.47496 18.53 5.05702 18.53 6.91897C18.53 8.78095 17.8789 10.3666 16.5768 11.6758C15.2746 12.9851 13.6925 13.6397 11.8305 13.6397ZM-0.890137 27.0811V22.118C-0.890137 21.1408 -0.639599 20.2394 -0.138524 19.4139C0.362576 18.5883 1.03921 17.9598 1.89139 17.5283C3.49791 16.7391 5.13298 16.1437 6.79658 15.7421C8.46015 15.3405 10.1381 15.1397 11.8305 15.1397C13.5653 15.1397 15.261 15.337 16.9175 15.7315C18.574 16.1261 20.1843 16.7179 21.7485 17.5071C22.6007 17.9386 23.2773 18.5636 23.7784 19.3821C24.2795 20.2006 24.53 21.1125 24.53 22.118V27.0811H-0.890137Z" fill="#F1EB00"/>
</svg>
